<mxfile host="Electron" agent="Mozilla/5.0 (Windows NT 10.0; Win64; x64) AppleWebKit/537.36 (KHTML, like Gecko) draw.io/24.7.5 Chrome/126.0.6478.183 Electron/31.3.0 Safari/537.36" version="24.7.5">
  <diagram name="第 1 页" id="uCsXW6tzw7xsISk7OYsU">
    <mxGraphModel dx="1276" dy="606" grid="1" gridSize="10" guides="1" tooltips="1" connect="1" arrows="1" fold="1" page="1" pageScale="1" pageWidth="827" pageHeight="1169" math="0" shadow="0">
      <root>
        <mxCell id="0" />
        <mxCell id="1" parent="0" />
        <mxCell id="NGoXAXe-_wjs8dHAezIH-1" value="&lt;font style=&quot;font-size: 18px;&quot;&gt;后端编译优化&lt;/font&gt;" style="rounded=0;whiteSpace=wrap;html=1;" vertex="1" parent="1">
          <mxGeometry x="50" y="340" width="110" height="30" as="geometry" />
        </mxCell>
        <mxCell id="NGoXAXe-_wjs8dHAezIH-3" value="&lt;font style=&quot;font-size: 16px;&quot;&gt;利用时间局部性和空间局部性，提高缓存命中率，进而提高速度与性能&lt;/font&gt;" style="rounded=1;whiteSpace=wrap;html=1;" vertex="1" parent="1">
          <mxGeometry x="370" y="170" width="290" height="50" as="geometry" />
        </mxCell>
        <mxCell id="NGoXAXe-_wjs8dHAezIH-4" value="" style="shape=flexArrow;endArrow=classic;html=1;rounded=0;entryX=0;entryY=0.5;entryDx=0;entryDy=0;exitX=1;exitY=0.5;exitDx=0;exitDy=0;" edge="1" parent="1" source="NGoXAXe-_wjs8dHAezIH-9" target="NGoXAXe-_wjs8dHAezIH-3">
          <mxGeometry width="50" height="50" relative="1" as="geometry">
            <mxPoint x="290" y="195" as="sourcePoint" />
            <mxPoint x="340" y="150" as="targetPoint" />
          </mxGeometry>
        </mxCell>
        <mxCell id="NGoXAXe-_wjs8dHAezIH-6" value="&lt;span style=&quot;color: rgba(0, 0, 0, 0.87); font-family: Roboto, &amp;quot;Noto Sans SC Sliced&amp;quot;, sans-serif; font-size: 16px; text-align: start; background-color: rgb(250, 250, 250);&quot;&gt;本质是通过利用硬件空间和指令集提供的功能进行代码设计，使得运算数据能够完整放进目标缓存中&lt;/span&gt;" style="rounded=1;whiteSpace=wrap;html=1;" vertex="1" parent="1">
          <mxGeometry x="370" y="250" width="290" height="70" as="geometry" />
        </mxCell>
        <mxCell id="NGoXAXe-_wjs8dHAezIH-9" value="&lt;font style=&quot;font-size: 18px;&quot;&gt;算子调度策略&lt;/font&gt;" style="rounded=0;whiteSpace=wrap;html=1;" vertex="1" parent="1">
          <mxGeometry x="180" y="180" width="110" height="30" as="geometry" />
        </mxCell>
        <mxCell id="NGoXAXe-_wjs8dHAezIH-10" value="" style="shape=curlyBracket;whiteSpace=wrap;html=1;rounded=1;labelPosition=left;verticalLabelPosition=middle;align=right;verticalAlign=middle;" vertex="1" parent="1">
          <mxGeometry x="160" y="200" width="20" height="310" as="geometry" />
        </mxCell>
        <mxCell id="NGoXAXe-_wjs8dHAezIH-11" value="&lt;font style=&quot;font-size: 18px;&quot;&gt;子策略组合优化&lt;/font&gt;" style="rounded=0;whiteSpace=wrap;html=1;" vertex="1" parent="1">
          <mxGeometry x="180" y="270" width="130" height="30" as="geometry" />
        </mxCell>
        <mxCell id="NGoXAXe-_wjs8dHAezIH-12" value="" style="shape=flexArrow;endArrow=classic;html=1;rounded=0;entryX=0;entryY=0.5;entryDx=0;entryDy=0;exitX=1;exitY=0.5;exitDx=0;exitDy=0;" edge="1" parent="1" source="NGoXAXe-_wjs8dHAezIH-11" target="NGoXAXe-_wjs8dHAezIH-6">
          <mxGeometry width="50" height="50" relative="1" as="geometry">
            <mxPoint x="280" y="205" as="sourcePoint" />
            <mxPoint x="330" y="205" as="targetPoint" />
          </mxGeometry>
        </mxCell>
        <mxCell id="NGoXAXe-_wjs8dHAezIH-14" value="&lt;font style=&quot;font-size: 18px;&quot;&gt;调度空间算法优化&lt;/font&gt;" style="rounded=0;whiteSpace=wrap;html=1;" vertex="1" parent="1">
          <mxGeometry x="180" y="375" width="150" height="30" as="geometry" />
        </mxCell>
        <mxCell id="NGoXAXe-_wjs8dHAezIH-15" value="&lt;span style=&quot;color: rgba(0, 0, 0, 0.87); font-family: Roboto, &amp;quot;Noto Sans SC Sliced&amp;quot;, sans-serif; font-size: 16px; text-align: start; background-color: rgb(250, 250, 250);&quot;&gt;该方法主要对循环进行优化。该算法的主要思想是针对输入代码的访存特点进行建模，调整循环语句中的每一个实例的执行顺序，使得新调度下的循环代码有更好的局部性和并行性。&lt;/span&gt;&lt;div&gt;&lt;span style=&quot;color: rgba(0, 0, 0, 0.87); font-family: Roboto, &amp;quot;Noto Sans SC Sliced&amp;quot;, sans-serif; font-size: 16px; text-align: start; background-color: rgb(250, 250, 250);&quot;&gt;局部性代表缓存利用效率，并行性指利用设备多核结构进行执行&lt;/span&gt;&lt;/div&gt;" style="rounded=1;whiteSpace=wrap;html=1;" vertex="1" parent="1">
          <mxGeometry x="370" y="330" width="340" height="120" as="geometry" />
        </mxCell>
        <mxCell id="NGoXAXe-_wjs8dHAezIH-16" value="" style="shape=flexArrow;endArrow=classic;html=1;rounded=0;entryX=0;entryY=0.5;entryDx=0;entryDy=0;exitX=1;exitY=0.5;exitDx=0;exitDy=0;" edge="1" parent="1" source="NGoXAXe-_wjs8dHAezIH-14" target="NGoXAXe-_wjs8dHAezIH-15">
          <mxGeometry width="50" height="50" relative="1" as="geometry">
            <mxPoint x="320" y="295" as="sourcePoint" />
            <mxPoint x="360" y="295" as="targetPoint" />
          </mxGeometry>
        </mxCell>
        <mxCell id="NGoXAXe-_wjs8dHAezIH-17" value="&lt;font style=&quot;font-size: 18px;&quot;&gt;芯片指令集适配&lt;/font&gt;" style="rounded=0;whiteSpace=wrap;html=1;" vertex="1" parent="1">
          <mxGeometry x="180" y="490" width="130" height="30" as="geometry" />
        </mxCell>
        <mxCell id="NGoXAXe-_wjs8dHAezIH-18" value="" style="shape=flexArrow;endArrow=classic;html=1;rounded=0;entryX=0;entryY=0.5;entryDx=0;entryDy=0;exitX=1;exitY=0.5;exitDx=0;exitDy=0;" edge="1" parent="1" source="NGoXAXe-_wjs8dHAezIH-17" target="NGoXAXe-_wjs8dHAezIH-19">
          <mxGeometry width="50" height="50" relative="1" as="geometry">
            <mxPoint x="320" y="295" as="sourcePoint" />
            <mxPoint x="380" y="295" as="targetPoint" />
          </mxGeometry>
        </mxCell>
        <mxCell id="NGoXAXe-_wjs8dHAezIH-19" value="&lt;span style=&quot;color: rgba(0, 0, 0, 0.87); font-family: Roboto, &amp;quot;Noto Sans SC Sliced&amp;quot;, sans-serif; font-size: 16px; text-align: start; background-color: rgb(250, 250, 250);&quot;&gt;本质是针对不同的芯片提供的指令集，通过利用硬件空间和指令集提供的功能进行代码设计，使得运算数据能够完整放进目标缓存中&lt;/span&gt;" style="rounded=1;whiteSpace=wrap;html=1;" vertex="1" parent="1">
          <mxGeometry x="370" y="470" width="340" height="70" as="geometry" />
        </mxCell>
      </root>
    </mxGraphModel>
  </diagram>
</mxfile>
